<svg width="32" height="32" viewBox="0 0 32 32" fill="none" xmlns="http://www.w3.org/2000/svg">
<rect width="32" height="32" rx="16" fill="#00A2ED"/>
<path fill-rule="evenodd" clip-rule="evenodd" d="M11.4285 15.9997C11.4285 15.8482 11.4887 15.7028 11.5959 15.5957C11.7031 15.4885 11.8484 15.4283 12 15.4283H18.6205L16.1668 12.9757C16.0595 12.8684 15.9992 12.7229 15.9992 12.5712C15.9992 12.4194 16.0595 12.2739 16.1668 12.1666C16.2741 12.0593 16.4196 11.999 16.5714 11.999C16.7231 11.999 16.8687 12.0593 16.976 12.1666L20.4045 15.5952C20.4577 15.6483 20.5 15.7113 20.5288 15.7807C20.5576 15.8502 20.5724 15.9246 20.5724 15.9997C20.5724 16.0749 20.5576 16.1493 20.5288 16.2188C20.5 16.2882 20.4577 16.3512 20.4045 16.4043L16.976 19.8329C16.8687 19.9402 16.7231 20.0005 16.5714 20.0005C16.4196 20.0005 16.2741 19.9402 16.1668 19.8329C16.0595 19.7256 15.9992 19.5801 15.9992 19.4283C15.9992 19.2766 16.0595 19.131 16.1668 19.0237L18.6205 16.5712H12C11.8484 16.5712 11.7031 16.511 11.5959 16.4038C11.4887 16.2966 11.4285 16.1513 11.4285 15.9997Z" fill="white"/>
</svg>
