<svg width="50" height="50" viewBox="0 0 50 50" fill="none" xmlns="http://www.w3.org/2000/svg">
<g opacity="0.8" clip-path="url(#clip0_945_5810)">
<path d="M37.6128 25.8126C37.7749 25.642 37.95 25.4792 38.1338 25.3228L39.0635 28.368C37.7551 29.1939 36.8849 30.6519 36.8849 32.3135C36.8849 34.8892 38.9731 36.977 41.5484 36.977C44.124 36.977 46.2118 34.8892 46.2118 32.3135C46.2118 30.0396 44.4864 28.0499 42.3327 27.6375L46.393 26.2497C48.1066 27.6707 49.296 29.9133 49.296 32.3135C49.296 36.5925 45.8273 40.0612 41.5484 40.0612C38.0724 40.0612 34.936 37.6747 33.9541 34.5219C34.1754 31.7192 35.6749 27.8469 37.6128 25.8126Z" fill="#576574"/>
<path d="M39.2527 38.6951C36.883 37.1101 35.8653 34.1221 36.7129 31.4003C37.1809 29.8969 37.8687 28.3764 38.6889 27.1412L38.1338 25.3228C37.95 25.4792 37.7749 25.642 37.6124 25.8126C35.6749 27.8469 34.1754 31.7192 33.9541 34.5219C34.9356 37.6747 38.0724 40.0612 41.5484 40.0612C41.91 40.0612 42.2651 40.0345 42.6138 39.9868C41.3977 39.817 40.2491 39.3615 39.2527 38.6951Z" fill="#00A2ED"/>
<path d="M41.2367 23.6296C41.3771 23.6227 41.5183 23.6182 41.6605 23.6182C43.6373 23.6182 45.5218 24.3559 46.9763 25.4752C47.2483 25.6842 47.1777 26.113 46.8527 26.224L41.6865 27.9898L40.3506 24.0157L41.2367 23.6296Z" fill="#009CDE"/>
<path d="M43.3707 23.802C42.8141 23.6838 42.2419 23.6182 41.6609 23.6182C41.5186 23.6182 41.3775 23.6231 41.2371 23.63L40.3506 24.016L41.6869 27.9902L44.4601 27.0422L43.3707 23.802Z" fill="#009CDE"/>
<path d="M10.7771 18.3311L13.8926 20.8922C14.5922 21.4671 15.5131 21.6971 16.4007 21.5186L18.0781 23.9943L15.1369 24.1801C14.226 24.2373 13.3272 23.9463 12.6231 23.3653L7.75781 19.3519L10.7771 18.3311Z" fill="#576574"/>
<path d="M15.7679 23.3653L11.5466 19.8832C11.2654 19.6513 11.3482 19.2012 11.6934 19.0845L10.7771 18.3311L7.75781 19.3519L12.6231 23.3653C13.3272 23.9463 14.226 24.2373 15.1369 24.1801L17.0954 24.0561C16.6136 23.9226 16.1604 23.6892 15.7679 23.3653Z" fill="#00A2ED"/>
<path d="M33.2475 17.5805C32.1809 18.0024 28.232 20.1932 26.0523 21.3044C25.1001 21.7896 24.3357 22.575 23.876 23.5398L23.3892 24.5614L17.7626 18.0398C21.7989 12.5417 24.5584 13.9043 28.2194 14.734C30.829 15.3252 33.8029 17.3672 33.8029 17.3672C33.6191 17.3741 33.4333 17.5072 33.2475 17.5805Z" fill="#009CDE"/>
<path d="M23.2164 16.8442C24.3894 15.4885 25.4602 14.7168 26.4898 14.3174C23.6242 13.6422 21.1405 13.4389 17.7626 18.0398L23.3892 24.5617L23.876 23.5398C24.2285 22.8001 24.7606 22.1665 25.4186 21.6919L23.2172 19.1407C22.6484 18.4811 22.6465 17.5027 23.2164 16.8442Z" fill="#009CDE"/>
<path d="M8.51032 24.5659C11.2088 24.5659 13.5842 25.9461 14.9716 28.0384L12.1423 29.3892C11.2874 28.3291 9.97859 27.6501 8.5107 27.6501C5.93502 27.6501 3.84725 29.7379 3.84725 32.3135C3.84725 34.8892 5.93502 36.977 8.5107 36.977C10.8975 36.977 12.8644 35.1833 13.1398 32.8709L16.2476 32.7198C16.0363 36.8099 12.6531 40.0612 8.51032 40.0612C4.23139 40.0612 0.762695 36.5925 0.762695 32.3135C0.762695 28.0346 4.23139 24.5659 8.51032 24.5659Z" fill="#576574"/>
<path d="M3.44823 32.3135C3.44823 28.4916 6.21655 25.3182 9.85728 24.6834C9.41973 24.6067 8.96998 24.5659 8.51031 24.5659C4.23139 24.5659 0.762695 28.0346 0.762695 32.3135C0.762695 36.5925 4.23139 40.0612 8.51031 40.0612C8.96884 40.0612 9.41706 40.0192 9.85346 39.9429C6.21502 39.307 3.44823 36.1343 3.44823 32.3135Z" fill="#00A2ED"/>
<path d="M2.3423 13.4463H3.93951C4.63798 13.4463 5.3105 13.7106 5.82205 14.1863L7.758 15.9865L10.9024 18.5717L7.93348 19.5128C6.90199 19.7676 5.63971 19.3281 4.96299 18.5088L1.77544 14.6502C1.37909 14.1703 1.72012 13.4463 2.3423 13.4463Z" fill="#005D9B"/>
<path d="M8.05128 18.5088L4.86373 14.6502C4.59289 14.3225 4.6669 13.8804 4.93926 13.6336C4.62303 13.5108 4.28428 13.4463 3.93944 13.4463H2.34223C1.72044 13.4463 1.37902 14.1703 1.77537 14.6502L4.96253 18.5088C5.63964 19.3278 6.90192 19.7676 7.93341 19.5124L8.91683 19.2007C8.58229 19.0222 8.28207 18.7884 8.05128 18.5088Z" fill="#00A2ED"/>
<path d="M21.1322 31.916C20.869 31.3735 20.7355 30.7906 20.7355 30.1841C20.7355 29.5623 20.8758 28.9657 21.1528 28.4114L21.1784 28.3603L19.4896 25.8682L7.79454 31.3575L7.79378 31.3579C6.85232 31.8072 7.19144 33.2561 8.25993 33.2057L17.6753 32.7582L17.6048 32.6228C17.5422 32.5027 17.5472 32.3604 17.6189 32.2425C17.6906 32.1242 17.8115 32.0563 17.9508 32.0563H21.2001L21.1322 31.916Z" fill="#E4EAF8"/>
<path d="M12.77 31.3583L12.7704 31.3579L20.6905 27.6405L19.49 25.8682L7.79454 31.3579L7.79378 31.3583C6.85232 31.8076 7.19144 33.2564 8.25993 33.2061L12.5789 33.0009C12.078 32.5931 12.0643 31.6951 12.77 31.3583Z" fill="#C7D2E5"/>
<path d="M20.0985 20.6277L23.3867 24.268L22.1473 26.8697C21.6076 27.2553 21.1658 27.7692 20.8671 28.3673L16.2567 21.5623L20.0985 20.6277Z" fill="#C7D2E5"/>
<path d="M20.2576 23.2415C19.8215 22.5983 20.1614 21.7175 20.9167 21.534L20.0985 20.6284L16.2567 21.5626L20.8671 28.368C21.1658 27.7699 21.6076 27.2557 22.1473 26.87L22.3819 26.3775L20.2576 23.2415Z" fill="#AABCD6"/>
<path d="M36.3432 18.7355C36.2387 18.7782 36.1341 18.8224 36.0292 18.8659L35.2228 16.4375L33.0896 15.039C32.4793 14.6393 32.3145 13.829 32.7215 13.2294C33.1289 12.6301 33.9537 12.4683 34.5636 12.8681L37.0802 14.5176C37.3285 14.6801 37.5135 14.92 37.6058 15.1985L38.3436 17.4202C37.8794 17.918 37.2316 18.3696 36.3432 18.7355Z" fill="#576574"/>
<path d="M40.3392 23.8174L42.9626 31.8606C43.1922 32.5652 42.8073 33.3228 42.1027 33.5525C41.9646 33.5978 41.8243 33.6192 41.6866 33.6192C41.1212 33.6192 40.5956 33.2591 40.4109 32.693L37.9958 25.2876C38.6726 24.7115 39.479 24.2256 40.3392 23.8174Z" fill="#576574"/>
<path d="M37.2251 16.4377L35.0916 15.0392C34.4812 14.6394 34.3164 13.8292 34.7238 13.2295C34.765 13.1689 34.8112 13.1139 34.8604 13.0624L34.5636 12.8683C33.9537 12.4681 33.1289 12.6302 32.7215 13.2295C32.3145 13.8292 32.4793 14.6394 33.0896 15.0392L35.2228 16.4377L36.0292 18.8661C36.1341 18.8222 36.2387 18.7784 36.3432 18.7353C36.8944 18.5087 37.3525 18.2485 37.7321 17.9651L37.2251 16.4377Z" fill="#00A2ED"/>
<path d="M42.4129 32.693L40.2396 26.0291C40.0901 25.571 40.253 25.0652 40.6478 24.7894L40.6547 24.7848L40.3392 23.8174C39.479 24.2259 38.6726 24.7115 37.9958 25.2879L40.4109 32.693C40.5956 33.2595 41.1212 33.6192 41.6866 33.6192C41.8243 33.6192 41.9646 33.5978 42.1027 33.5528C42.337 33.4765 42.5342 33.3411 42.6871 33.1698C42.5674 33.0352 42.4724 32.875 42.4129 32.693Z" fill="#00A2ED"/>
<path d="M25.8477 26.4016C25.4575 26.2773 25.0421 26.2094 24.6106 26.2094C23.7291 26.2094 22.8158 26.3929 22.1494 26.8689L23.8756 23.2458C24.3352 22.281 25.0997 21.4956 26.0515 21.0104C28.2315 19.8991 32.1805 17.9037 33.2471 17.4818C34.7436 16.8901 36.3721 18.8322 36.3721 18.8322C33.682 19.9594 30.7988 21.4498 28.7519 22.5233C27.1894 23.343 26.2002 24.7144 25.8477 26.4016Z" fill="#E4EAF8"/>
<path d="M25.1149 24.207C25.5746 23.2426 26.3391 22.4568 27.2912 21.9715C29.4709 20.8603 33.4199 18.8649 34.4865 18.4433C35.0736 18.2114 35.6801 18.3693 36.2016 18.6467C35.7461 18.1759 34.4537 17.0056 33.2471 17.4828C32.1805 17.9043 28.2315 19.8998 26.0515 21.011C25.0997 21.4962 24.3352 22.2817 23.8756 23.2464L22.1494 26.87C22.7006 26.4759 23.4208 26.2829 24.1525 26.2276L25.1149 24.207Z" fill="#C7D2E5"/>
<path d="M25.9519 27.8541C25.8126 27.7931 25.723 27.6542 25.723 27.5005C25.723 27.1056 25.7638 26.7101 25.8443 26.3244L25.8626 26.2382L25.7783 26.2115C25.369 26.081 24.9429 26.0146 24.5118 26.0146C22.2127 26.0146 20.3428 27.885 20.3428 30.1837C20.3428 30.8204 20.4828 31.4319 20.759 32.001L20.7857 32.056H22.2543C22.3741 32.056 22.487 32.112 22.5633 32.2097C23.1057 32.9066 23.9358 33.3087 24.8128 33.3087C24.8761 33.3087 24.9395 33.3064 25.0032 33.3022C26.3902 33.2103 27.5262 32.0975 27.6452 30.714C27.7501 29.494 27.0696 28.3447 25.9519 27.8541Z" fill="#576574"/>
<path d="M25.6852 32.2107C25.6089 32.113 25.496 32.0569 25.3762 32.0569H24.7911C23.8759 32.0569 23.61 31.2688 23.5467 31.0052C23.4933 30.7374 23.4647 30.4635 23.4647 30.1843C23.4647 28.5329 24.4298 27.1028 25.8256 26.4284C25.8321 26.394 25.8371 26.3593 25.8443 26.325L25.8626 26.2388L25.7787 26.2121C25.369 26.0816 24.9429 26.0156 24.5118 26.0156C22.2131 26.0156 20.3428 27.8856 20.3428 30.1843C20.3428 30.821 20.4828 31.4325 20.759 32.0016L20.7857 32.0566H22.2543C22.3745 32.0566 22.487 32.1126 22.5633 32.2107C23.1057 32.9072 23.9358 33.3093 24.8128 33.3093C24.8761 33.3093 24.9395 33.3074 25.0032 33.3032C25.5033 33.27 25.9698 33.1037 26.3688 32.8405C26.1113 32.6715 25.8794 32.4605 25.6852 32.2107Z" fill="#00A2ED"/>
<path d="M27.1856 29.0801H27.1852C27.4602 29.5512 27.6002 30.1108 27.5487 30.7063C27.4339 32.0429 26.3364 33.1164 24.9975 33.2053C24.04 33.269 23.1794 32.8414 22.6411 32.1505C22.5481 32.0311 22.4069 31.959 22.2551 31.959H17.7541C17.3609 31.959 17.1301 32.4011 17.3548 32.7239L20.5049 37.2485C20.5961 37.3793 20.7452 37.4571 20.9043 37.4571H33.2978C33.5446 37.4571 33.7518 37.2729 33.7808 37.028C33.8899 36.1063 34.2061 33.8316 34.8893 31.4807L27.1856 29.0801Z" fill="#005D9B"/>
<path d="M23.9701 37.4575C23.8107 37.4575 23.6615 37.3793 23.5707 37.2488L20.4205 32.7238C20.1959 32.4015 20.4267 31.9594 20.8196 31.959H17.7541C17.3612 31.959 17.13 32.4011 17.3547 32.7238L20.5049 37.2488C20.596 37.3793 20.7452 37.4575 20.9043 37.4575H33.2978H23.9701Z" fill="#00A2ED"/>
<path d="M26.3352 32.7456C27.9732 33.8671 30.4276 32.8639 30.6134 30.7063C30.6298 30.5159 30.6244 30.3286 30.6027 30.1451L27.1844 29.0801C27.459 29.5512 27.599 30.1108 27.5479 30.7063C27.475 31.5528 27.0077 32.2932 26.3352 32.7456Z" fill="#00A2ED"/>
<path d="M47.1223 19.8763C47.2303 19.8763 47.3363 19.8805 47.4412 19.8866L46.792 17.8858C46.6005 17.2957 46.3476 16.7288 46.0405 16.1936L43.9409 15.988C43.2939 15.9247 42.7091 15.5768 42.3448 15.0389L39.4483 10.7607L39.0234 11.0217C38.6636 11.2425 38.5168 11.6942 38.6831 12.0821C39.3083 13.5378 40.2975 17.05 36.2737 18.7357C33.7713 19.784 31.1876 21.0619 29.1914 22.0991C30.414 22.1174 31.7553 22.3906 33.0858 22.9448C34.9836 23.7352 36.4923 24.9426 37.3953 26.2506C37.4666 26.1671 37.5395 26.0862 37.6135 26.0084C39.7176 23.7989 43.754 22.7915 46.1763 22.3677C45.1654 22.1838 44.4459 21.7146 44.4459 21.1638C44.4459 20.4527 45.6441 19.8763 47.1223 19.8763Z" fill="#009CDE"/>
<path d="M31.8171 22.3291C31.9597 22.2544 32.1077 22.1769 32.2576 22.0991C32.2576 22.0991 32.2576 22.0991 32.2573 22.0991C32.2943 22.0797 32.395 22.0278 32.4491 21.9996H32.4495C34.4179 20.9807 36.9161 19.7508 39.3396 18.7353C41.5208 17.8217 42.2285 16.3714 42.32 15.0027L39.4483 10.7607L39.0234 11.0217C38.6636 11.2425 38.5168 11.6942 38.6831 12.0821C39.3083 13.5378 40.2975 17.05 36.2737 18.7357C33.7713 19.784 31.1876 21.0619 29.1914 22.0991C29.9612 22.1109 30.7783 22.2235 31.6099 22.4436C31.6782 22.4043 31.7469 22.3658 31.8171 22.3291Z" fill="#009CDE"/>
<path d="M43.8446 16.0852C43.1976 16.0219 42.6128 15.674 42.2485 15.1361L39.3341 10.8312L40.1928 10.304C40.5483 10.0858 41.0095 10.156 41.2838 10.4707L45.0237 14.7615C45.4391 15.2376 45.8004 15.7564 46.1052 16.3064L43.8446 16.0852Z" fill="#8AC2FF"/>
<path d="M44.8738 15.1822C44.2272 15.1189 43.642 14.771 43.2777 14.2331L40.5369 10.1846C40.4179 10.1991 40.3004 10.2384 40.1928 10.3044L39.3341 10.8319L42.2489 15.1364C42.6132 15.6747 43.198 16.0226 43.845 16.0855L46.1055 16.3068C45.8984 15.9333 45.663 15.5755 45.4048 15.2341L44.8738 15.1822Z" fill="#54A0FF"/>
<path d="M29.7951 30.9397C28.8994 30.5667 28.0953 30.0952 27.4079 29.5626C27.1569 28.8375 26.6121 28.2496 25.9144 27.9437C25.739 27.8666 25.6272 27.6919 25.6272 27.5004C25.6272 25.3295 26.83 23.3371 28.7526 22.3289C28.9559 22.222 29.168 22.1118 29.385 21.9993C30.5722 21.9996 31.8844 22.2579 33.1852 22.7996C35.1124 23.6026 36.6158 24.8603 37.439 26.2019C36.2446 27.5641 35.4126 29.6386 34.845 31.6378C33.3737 31.893 31.5735 31.6805 29.7951 30.9397Z" fill="#00A2ED"/>
<path d="M25.9148 27.944C26.6125 28.25 27.1573 28.8378 27.4083 29.563C28.0957 30.0955 28.8998 30.567 29.7955 30.9401C30.0381 31.0412 30.2815 31.1316 30.5241 31.2132C30.568 31.0519 30.6004 30.8836 30.6157 30.7062C30.7187 29.5107 30.0396 28.4087 28.9803 27.944C28.8052 27.867 28.6931 27.6923 28.6931 27.5008C28.6931 25.3321 29.8935 23.342 31.8123 22.3326C30.9754 22.1091 30.1541 22 29.3854 22C29.1684 22.1122 28.9559 22.2224 28.7529 22.3292C26.8303 23.3374 25.6272 25.3298 25.6272 27.5008C25.6276 27.6923 25.7393 27.867 25.9148 27.944Z" fill="#00A2ED"/>
<path d="M7.78108 15.9586C8.48336 15.1377 9.69567 15.0034 10.5872 15.6134C13.3768 17.5226 17.7622 18.0395 17.7622 18.0395L20.2238 20.7647L16.2588 21.5628C15.3857 21.7382 14.4797 21.512 13.7919 20.9467L7.75781 15.9865C7.76544 15.9769 7.77345 15.9678 7.78108 15.9586Z" fill="#00A2ED"/>
<path d="M18.6503 20.946L14.1379 17.2362C12.9431 16.8647 11.6496 16.3398 10.5872 15.6127C9.69567 15.0023 8.48337 15.1366 7.78146 15.9579C7.77345 15.9671 7.76582 15.9762 7.75781 15.9858L13.7919 20.946C14.48 21.5113 15.3857 21.7375 16.2588 21.5621L18.7891 21.0528C18.7418 21.0185 18.6957 20.983 18.6503 20.946Z" fill="#374451"/>
<path d="M44.3789 21.1562C44.3789 20.4356 45.5435 19.8516 46.9798 19.8516C47.1354 19.8516 47.2876 19.8588 47.436 19.8722L47.8232 21.0654C47.9937 21.5911 47.6496 22.1427 47.1026 22.2209C46.8119 22.2621 46.4701 22.3158 46.0921 22.383C45.0926 22.201 44.3789 21.7204 44.3789 21.1562Z" fill="#576574"/>
<path d="M46.3644 21.1562C46.3644 20.708 46.8157 20.3124 47.5024 20.0778L47.436 19.8722C47.2876 19.8588 47.1354 19.8516 46.9798 19.8516C45.5435 19.8516 44.3789 20.4356 44.3789 21.1562C44.3789 21.7204 45.093 22.201 46.0921 22.383C46.4701 22.3158 46.8119 22.2621 47.1026 22.2209C47.177 22.2102 47.2475 22.19 47.3139 22.1629C46.7349 21.9233 46.3644 21.5617 46.3644 21.1562Z" fill="#00A2ED"/>
<path d="M47.3925 24.8257C46.5468 24.1746 45.6144 23.6825 44.6264 23.3567C45.4813 23.1557 46.3644 22.992 47.1766 22.8761C48.1718 22.7342 48.8016 21.7294 48.4907 20.77C47.4257 17.489 47.1342 16.0352 45.5443 14.211L41.8043 9.92064C41.2936 9.33432 40.441 9.20424 39.778 9.61089L38.6103 10.328C37.9435 10.7374 37.6727 11.5857 37.9805 12.3018C38.2845 13.0098 38.7095 14.3148 38.3891 15.5404L38.1808 14.9018C38.0396 14.4689 37.7531 14.0916 37.3747 13.8391L34.9024 12.1896C33.9682 11.5663 32.7006 11.8192 32.0769 12.7538C31.4521 13.6903 31.7042 14.9545 32.6411 15.5793L34.1475 16.5841C34.0987 16.5784 34.0499 16.5731 34.0006 16.5696C30.6918 14.3956 28.6292 14.0256 27.341 13.7082C24.1954 12.9335 21.2207 12.2018 17.4064 17.1834C16.2814 17.0049 13.0947 16.3938 10.9699 14.9396C9.96662 14.253 8.6826 14.2747 7.73579 14.9255L6.28965 13.5804C5.10214 12.4761 3.94286 12.6443 2.31132 12.6443C1.06926 12.6443 0.389479 14.0908 1.1795 15.0472L4.36705 18.9057C5.12197 19.8197 6.31788 20.3019 7.52332 20.1436L12.0464 23.8747C12.8993 24.5786 13.964 24.9097 15.031 24.8418L17.506 24.6854L18.1449 25.6284L15.1775 27.0451C13.5745 24.9802 11.116 23.7645 8.48042 23.7645C3.80438 23.7641 0 27.5685 0 32.2445C0 36.9206 3.80438 40.7246 8.48042 40.7246C12.7719 40.7246 16.3421 37.5359 16.8865 33.3516L16.9162 33.35L19.8734 37.5973C20.1011 37.9246 20.4753 38.1199 20.8736 38.1199H25.8197C26.2244 38.1199 26.5521 37.7918 26.5521 37.3875C26.5521 36.9828 26.2244 36.6551 25.8197 36.6551H21.0021L18.1941 32.6218H22.1061C24.0291 34.9285 27.7655 33.8581 28.2195 30.9289C29.8854 31.8726 31.8972 32.4604 33.8355 32.3994C33.5002 33.7582 33.224 35.2661 33.0496 36.6551H29.238C28.8337 36.6551 28.5056 36.9831 28.5056 37.3875C28.5056 37.7918 28.8333 38.1199 29.238 38.1199H33.2675C33.8851 38.1199 34.4054 37.6576 34.4779 37.0442C34.4805 37.0217 34.484 36.9984 34.4866 36.9759C35.0188 37.7651 35.6814 38.4686 36.4462 39.0404C42.0054 43.1969 50.0002 39.2212 50.0002 32.2445C50.0002 30.0446 49.1545 27.9595 47.653 26.389C47.9933 25.8733 47.8716 25.1942 47.3925 24.8257ZM23.6014 25.3911L24.5063 23.4921C24.8942 22.6777 25.5504 22.0036 26.3537 21.5939C26.9519 21.2892 33.1965 18.0867 33.7401 18.0341C34.1494 17.9948 34.5709 18.2065 34.9078 18.4426C33.9797 18.8474 28.4884 21.3609 27.296 22.3245C26.3038 23.1263 25.5832 24.1875 25.1952 25.3636C24.6638 25.2839 24.1042 25.2984 23.6014 25.3911ZM17.4518 21.9937C18.4818 21.7866 18.1297 21.8575 19.929 21.4955L22.486 24.3264C22.166 24.9985 21.8505 25.6604 21.5354 26.3222C21.2817 26.5195 21.02 26.7747 20.8362 26.989C19.8928 25.5967 18.5409 23.6009 17.4518 21.9937ZM36.5267 19.3418C36.5267 19.3418 36.5271 19.3418 36.5267 19.3418C39.5663 18.0684 40.5627 15.55 39.6345 12.5589L41.6109 15.4775C42.0988 16.1985 42.8755 16.6604 43.7418 16.7451L45.611 16.9282C45.9379 17.5889 46.0455 17.9822 46.4003 19.0751C44.7806 19.2262 43.6171 20.0406 43.6171 21.0866C43.6171 21.4246 43.733 21.7362 43.9455 22.0105C41.7189 22.5621 39.2081 23.4849 37.5014 25.0027C36.2582 23.4582 34.204 22.1146 31.8034 21.5127C33.3003 20.7746 35.0184 19.97 36.5267 19.3418ZM40.7 10.8831C44.9801 15.793 44.3827 15.1025 44.5917 15.3566C43.8822 15.2871 43.2711 15.3169 42.8236 14.6562L40.3384 10.9861L40.5447 10.8594C40.5947 10.8285 40.6603 10.8373 40.7 10.8831ZM46.9698 21.4261C46.6921 21.4654 46.3896 21.5127 46.0695 21.5676C45.4294 21.4288 45.1388 21.1839 45.0865 21.0862C45.1716 20.9191 45.793 20.5342 46.8676 20.5152L47.0972 21.222C47.1277 21.3155 47.0671 21.412 46.9698 21.4261ZM39.7311 28.0717C39.4854 27.3186 39.6437 27.8042 38.959 25.705C39.2588 25.4826 39.5911 25.2686 39.9546 25.0645C40.4391 26.5496 41.8242 30.7969 42.2384 32.0672C42.3361 32.3674 42.1728 32.6905 41.8715 32.7889C41.5667 32.8881 41.247 32.7206 41.1497 32.4219L39.7311 28.0717ZM42.1225 26.9875L41.2867 24.4244L41.4377 24.3588C42.9972 24.3024 44.6127 24.7144 46.0302 25.6516L42.1225 26.9875ZM35.8397 16.1409C35.789 15.9845 35.6867 15.8502 35.5498 15.759L33.454 14.3605C33.1904 14.1847 33.1202 13.8295 33.2953 13.5667C33.4708 13.3039 33.8271 13.2329 34.0895 13.408L36.5614 15.0575C36.6679 15.1284 36.7484 15.2345 36.788 15.3562L37.3709 17.143C37.0795 17.3963 36.7545 17.6053 36.4077 17.7827C36.3924 17.7678 36.3772 17.7537 36.3608 17.7384L35.8397 16.1409ZM26.9904 15.1303C28.2538 15.4416 29.4719 15.6079 32.0841 17.1132C30.4068 17.8937 27.3387 19.4478 25.6885 20.2889C24.599 20.8444 23.7094 21.758 23.1837 22.8619L23.1677 22.8955L18.6809 17.9284C21.8459 13.8631 24.0207 14.3991 26.9904 15.1303ZM10.1425 16.1485C12.667 17.8762 16.3291 18.5094 17.3679 18.6601C17.8695 19.2155 17.5277 18.8371 18.7865 20.231L16.0835 20.7749C15.4228 20.9077 14.7464 20.7387 14.2261 20.3111L8.92903 15.957C9.32346 15.8357 9.77131 15.894 10.1425 16.1485ZM5.49658 17.9727L2.30712 14.116C2.30712 14.1137 2.30903 14.1095 2.30674 14.1092H2.3117C3.93294 14.1092 4.57457 13.9856 5.29211 14.6528C7.81247 16.9969 6.67226 15.9978 9.21284 18.0863C8.14473 18.4472 8.44761 18.345 7.5237 18.6574C6.77793 18.831 5.98485 18.5639 5.49658 17.9727ZM12.9787 22.7445L9.20826 19.6343C9.71294 19.4638 9.40739 19.5668 10.5457 19.1823L13.2961 21.4429C14.0071 22.0273 14.9246 22.3367 15.8744 22.2772C16.3543 22.9852 16.2074 22.7689 16.5523 23.2777C14.9665 23.3781 14.0129 23.5978 12.9787 22.7445ZM7.48898 30.7156C6.93357 30.9807 6.57422 31.5499 6.57422 32.1656C6.57422 33.0796 7.34059 33.815 8.25917 33.7704L12.1776 33.5804C11.6275 35.1071 10.1661 36.1756 8.48042 36.1756C6.31292 36.1756 4.54939 34.412 4.54939 32.2445C4.54939 29.0127 8.27023 27.1508 10.8512 29.1104L7.48898 30.7156ZM15.3972 33.424C14.8357 36.755 11.9403 39.2597 8.48042 39.2597C4.61195 39.2597 1.46484 36.113 1.46484 32.2445C1.46484 28.3761 4.61195 25.2293 8.48042 25.2293C10.5522 25.2293 12.4923 26.1372 13.8183 27.694L12.2898 28.4238C8.92521 25.0615 3.08417 27.4308 3.08417 32.2445C3.08417 35.22 5.50497 37.6404 8.48042 37.6404C10.9996 37.6404 13.1545 35.9017 13.7271 33.5053C14.4027 33.4721 14.0407 33.4896 15.3972 33.424ZM17.7238 31.1566C17.2225 31.1566 16.788 31.4606 16.6015 31.8989L8.18822 32.3075C8.10734 32.3124 8.03944 32.2468 8.03944 32.1656C8.03944 32.1114 8.0711 32.0611 8.11993 32.0378C8.37285 31.9172 18.6397 27.0154 18.9758 26.8552C19.5098 27.6433 19.3725 27.4407 20.0046 28.3734C19.6536 29.2695 19.5934 30.2628 19.7913 31.1566H17.7238ZM21.31 31.1566C20.5558 28.8712 22.4265 26.4985 24.8935 26.8033C24.8755 26.9879 24.863 27.2347 24.863 27.4308C24.863 27.9088 25.143 28.3452 25.5805 28.5409C25.5832 28.5424 25.5858 28.5439 25.5889 28.5451C26.4346 28.9162 26.9301 29.8352 26.7646 30.7549C26.4773 32.3441 24.4155 33.0868 23.1566 31.5941C22.9224 31.3164 22.5864 31.1566 22.2247 31.1566H21.31ZM27.9845 29.0349C27.6526 28.2525 27.032 27.6166 26.3305 27.2752C26.3629 26.2158 26.726 25.1839 27.362 24.3459C28.1089 23.3594 28.9195 22.981 29.5283 22.6647C32.1288 22.725 35.0253 24.1196 36.4962 26.093C35.4617 27.4617 34.7418 29.2657 34.2444 30.9071C32.107 31.1207 29.6901 30.296 27.9845 29.0349ZM41.5194 39.2597C38.4898 39.2597 35.842 37.3554 34.8754 34.5024C35.3434 32.0614 36.2391 28.7556 37.7837 26.825L38.1712 28.0137C34.1853 31.1593 36.4104 37.6404 41.5194 37.6404C43.6228 37.6404 45.5485 36.4041 46.4258 34.4906C46.5944 34.1229 46.4327 33.688 46.0653 33.5194C45.6976 33.3508 45.2627 33.5122 45.0941 33.8799C44.4548 35.2745 43.0517 36.1756 41.5194 36.1756C39.3519 36.1756 37.5887 34.412 37.5887 32.2445C37.5887 31.2195 37.9809 30.2598 38.6687 29.5384L39.757 32.8762C40.1079 33.9516 41.2581 34.5295 42.3258 34.1816C43.3966 33.8322 43.9802 32.6832 43.6312 31.6128L42.6058 28.4691C43.8406 28.8235 44.8362 29.7658 45.2486 30.999C45.3768 31.3828 45.7918 31.5899 46.1752 31.4618C46.559 31.3332 46.7661 30.9186 46.6379 30.5348C46.2473 29.3656 45.4748 28.386 44.4758 27.731L46.2977 27.1084C50.9241 31.411 47.8998 39.2597 41.5194 39.2597Z" fill="#0C304A"/>
</g>
<defs>
<clipPath id="clip0_945_5810">
<rect width="50" height="50" fill="white"/>
</clipPath>
</defs>
</svg>
