<svg width="50" height="50" viewBox="0 0 50 50" fill="none" xmlns="http://www.w3.org/2000/svg">
<g opacity="0.8">
<path d="M49.2188 48.825H0.78125L11.2671 41.4116H38.7329L49.2188 48.825Z" fill="#68544F"/>
<path d="M49.2185 48.825H43.1499L35.6583 41.4116H38.7327L49.2185 48.825Z" fill="#53433F"/>
<path d="M36.4346 44.9194C36.4346 45.7778 31.3151 46.4738 25 46.4738C18.6849 46.4738 13.5654 45.7778 13.5654 44.9194C13.5654 44.061 18.6849 43.365 25 43.365C31.3151 43.365 36.4346 44.0609 36.4346 44.9194Z" fill="#66CCFF"/>
<path d="M36.4355 44.9187C36.4355 45.5091 34.0136 46.0222 30.4463 46.2859C33.0517 45.9645 34.7195 45.4715 34.7195 44.9187C34.7195 44.3659 33.0517 43.873 30.4463 43.5515C34.0135 43.8146 36.4355 44.3282 36.4355 44.9187Z" fill="#4DA6FF"/>
<path d="M39.7687 15.9431C39.7687 26.5618 25.0006 45.1181 25.0006 45.1181C25.0006 45.1181 10.2325 26.5618 10.2325 15.9431C10.2325 12.0264 11.7885 8.27006 14.558 5.50052C17.3276 2.73097 21.0839 1.17505 25.0006 1.17505C28.9173 1.17505 32.6737 2.73097 35.4432 5.50052C38.2128 8.27006 39.7687 12.0264 39.7687 15.9431Z" fill="#00A2ED"/>
<path d="M39.7681 15.9434C39.7681 26.5621 25 45.1184 25 45.1184C25 45.1184 37.9499 26.7026 37.9499 16.0842C37.9499 9.37085 33.5687 3.4064 28.1152 1.5061C31.4148 2.21899 34.3707 4.04043 36.4908 6.66723C38.611 9.29403 39.7676 12.5677 39.7681 15.9434Z" fill="url(#paint0_linear_945_5957)"/>
<path d="M36.0908 15.6752C36.0908 17.8688 35.4403 20.0132 34.2216 21.8371C33.0029 23.6611 31.2707 25.0827 29.244 25.9221C27.2174 26.7616 24.9873 26.9812 22.8358 26.5533C20.6843 26.1253 18.7081 25.069 17.1569 23.5179C15.6058 21.9667 14.5495 19.9905 14.1215 17.839C13.6935 15.6875 13.9132 13.4574 14.7527 11.4308C15.5921 9.40412 17.0137 7.67191 18.8377 6.45319C20.6616 5.23447 22.806 4.58398 24.9996 4.58398C27.9412 4.58398 30.7623 5.75252 32.8423 7.83253C34.9223 9.91253 36.0908 12.7336 36.0908 15.6752Z" fill="#F5F5F5"/>
<path d="M36.0908 15.6752C36.0908 17.8688 35.4403 20.0132 34.2216 21.8371C33.0029 23.6611 31.2707 25.0827 29.244 25.9221C27.2174 26.7616 24.9873 26.9812 22.8358 26.5533C20.6843 26.1253 18.7081 25.069 17.1569 23.5179C15.6058 21.9667 14.5495 19.9905 14.1215 17.839C13.6935 15.6875 13.9132 13.4574 14.7527 11.4308C15.5921 9.40412 17.0137 7.67191 18.8377 6.45319C20.6616 5.23447 22.806 4.58398 24.9996 4.58398C27.9412 4.58398 30.7623 5.75252 32.8423 7.83253C34.9223 9.91253 36.0908 12.7336 36.0908 15.6752Z" fill="#F5F5F5"/>
<path d="M36.0909 15.6752C36.0909 18.5729 34.9568 21.3555 32.9313 23.4277C30.9059 25.5 28.1499 26.6972 25.2529 26.7633C30.5625 25.9279 34.6261 21.2819 34.6261 15.6752C34.6261 10.0686 30.5626 5.42271 25.2529 4.58716C28.1499 4.65329 30.9059 5.85053 32.9313 7.92274C34.9568 9.99495 36.0909 12.7776 36.0909 15.6752Z" fill="#BFBFBF"/>
<path d="M34.8137 20.848C33.9901 22.405 32.8093 23.7447 31.3681 24.7573L26.7713 20.1604L24.3431 20.8113C24.0962 20.8627 23.8406 20.8553 23.5969 20.79C23.3533 20.7246 23.1284 20.603 22.9403 20.4348L19.6324 17.128C19.4643 16.9397 19.3428 16.7146 19.2776 16.4708C19.2124 16.227 19.2053 15.9713 19.257 15.7242L19.6948 14.0895C19.8137 13.6437 20.1793 13.5457 20.5053 13.8716L24.4055 17.7734L27.2884 17.0007L28.0599 14.1178C28.0599 14.1178 24.2611 10.3175 24.0139 10.0719C23.7668 9.82626 23.9317 9.52596 24.3765 9.40712L26.0122 8.96922C26.2592 8.91754 26.515 8.92458 26.7588 8.98978C27.0026 9.05498 27.2277 9.17652 27.416 9.34462L30.7229 12.6525C30.8909 12.8407 31.0125 13.0656 31.0779 13.3092C31.1433 13.5528 31.1506 13.8084 31.0994 14.0554L30.4492 16.4831L34.8137 20.848Z" fill="#66CCFF"/>
<path d="M34.8128 20.8484C33.9892 22.4054 32.8084 23.7451 31.3672 24.7577L30.7812 24.1717C32.124 22.9972 33.168 21.5202 33.8271 19.8625L34.8128 20.8484Z" fill="#4DA6FF"/>
</g>
<defs>
<linearGradient id="paint0_linear_945_5957" x1="17.1251" y1="-16.0729" x2="41.7737" y2="-15.2233" gradientUnits="userSpaceOnUse">
<stop stop-color="#00A2ED"/>
<stop offset="1" stop-color="#00518B"/>
</linearGradient>
</defs>
</svg>
