<svg width="50" height="50" viewBox="0 0 50 50" fill="none" xmlns="http://www.w3.org/2000/svg">
<g opacity="0.8">
<path d="M33.4922 13.2875L27.7274 18.3048L33.448 23.2112L25.822 23.9862L27.4677 31.2956L20.8968 27.5301L17.8315 34.4555L14.8293 27.5908L8.22511 31.4821L9.9296 24.1409L2.31329 23.5117L8.07804 18.4944L2.35743 13.588L9.98341 12.813L8.33771 5.50361L14.9086 9.26914L17.9739 2.34375L21.0946 8.59385L27.5803 5.31709L25.8758 12.6583L33.4922 13.2875Z" fill="#00A2ED"/>
<path d="M47.6563 23.4375V34.0449C47.6564 34.3695 47.5556 34.6861 47.3676 34.9507C47.1796 35.2153 46.914 35.4148 46.6074 35.5215L31.25 39.0625L11.7188 47.6563L7.8125 40.625V32.8125C7.81069 29.7341 8.41569 26.6856 9.59289 23.8412C10.7701 20.9968 12.4964 18.4124 14.6732 16.2357C16.8499 14.0589 19.4343 12.3326 22.2787 11.1554C25.1231 9.97819 28.1716 9.37319 31.25 9.375H33.5938C37.3234 9.375 40.9002 10.8566 43.5374 13.4938C46.1747 16.131 47.6563 19.7079 47.6563 23.4375Z" fill="#00A2ED"/>
<path d="M31.3721 28.7568L7.81253 39.8437V32.8124C7.80683 29.0006 8.73492 25.2453 10.5157 21.8749H22.6563L28.9746 20.9033C29.9604 20.7516 30.9678 20.9601 31.8124 21.4906C32.6569 22.0212 33.282 22.8382 33.5732 23.7921C33.8644 24.746 33.8022 25.7729 33.398 26.6847C32.9937 27.5965 32.2745 28.3321 31.3721 28.7568Z" fill="#00A2ED"/>
<path d="M29.6875 26.5625C30.5504 26.5625 31.25 25.8629 31.25 25C31.25 24.1371 30.5504 23.4375 29.6875 23.4375C28.8246 23.4375 28.125 24.1371 28.125 25C28.125 25.8629 28.8246 26.5625 29.6875 26.5625Z" fill="#A8BCCB"/>
<path d="M33.5938 8.59375H31.25C24.8268 8.59375 18.6667 11.1454 14.1248 15.6873C9.58286 20.2292 7.03125 26.3893 7.03125 32.8125V40.625C7.03129 40.7578 7.06513 40.8883 7.12959 41.0044L11.0358 48.0356C11.1303 48.2059 11.285 48.3347 11.4696 48.3968C11.6541 48.4589 11.8552 48.4498 12.0334 48.3713L31.4973 39.8068L46.7826 36.282C46.81 36.2758 46.8371 36.268 46.8637 36.2587C47.3232 36.0986 47.7215 35.7995 48.0035 35.403C48.2854 35.0064 48.4371 34.532 48.4375 34.0454V23.4375C48.4375 15.2526 41.7786 8.59375 33.5938 8.59375ZM11.0018 22.6562H22.6562C22.696 22.6563 22.7357 22.6532 22.775 22.6472L29.0934 21.6752C29.9377 21.5473 30.7992 21.7442 31.5041 22.2263C32.209 22.7083 32.705 23.4396 32.8922 24.2729L32.8936 24.2787C33.0615 25.0246 32.9691 25.8055 32.6317 26.4917C32.2943 27.1778 31.7323 27.7278 31.0391 28.0503L8.59375 38.6127V32.8125C8.58989 29.2852 9.41471 25.8063 11.0018 22.6562ZM46.875 34.0454C46.8749 34.2016 46.828 34.3543 46.7404 34.4836C46.6527 34.613 46.5284 34.7131 46.3833 34.7711L31.0742 38.3008C31.0265 38.3118 30.9799 38.3273 30.9351 38.3471L12.0559 46.6544L8.59375 40.4226V40.3396L31.7043 29.464C32.7206 28.9913 33.5442 28.1846 34.0379 27.1784C34.5317 26.1722 34.6657 25.0271 34.4177 23.9341L34.416 23.9271C34.1405 22.7087 33.4138 21.64 32.3823 20.9357C31.3507 20.2314 30.0907 19.9438 28.8557 20.1309L22.5965 21.0938H11.8663C15.8418 14.5426 23.0432 10.1562 31.25 10.1562H33.5938C40.9171 10.1562 46.875 16.1143 46.875 23.4375V34.0454Z" fill="#F0F4F7"/>
<path d="M29.6875 27.3438C30.1511 27.3438 30.6042 27.2063 30.9896 26.9488C31.375 26.6912 31.6754 26.3252 31.8528 25.8969C32.0302 25.4686 32.0767 24.9974 31.9862 24.5428C31.8958 24.0881 31.6726 23.6705 31.3448 23.3427C31.017 23.0149 30.5994 22.7917 30.1447 22.7013C29.6901 22.6109 29.2189 22.6573 28.7906 22.8347C28.3623 23.0121 27.9963 23.3125 27.7387 23.6979C27.4812 24.0833 27.3438 24.5365 27.3438 25C27.3444 25.6214 27.5916 26.2171 28.031 26.6565C28.4704 27.0959 29.0661 27.3431 29.6875 27.3438ZM29.6875 24.2188C29.842 24.2188 29.9931 24.2646 30.1215 24.3504C30.25 24.4363 30.3501 24.5583 30.4093 24.701C30.4684 24.8438 30.4839 25.0009 30.4537 25.1524C30.4236 25.304 30.3492 25.4432 30.2399 25.5524C30.1307 25.6617 29.9915 25.7361 29.8399 25.7662C29.6884 25.7964 29.5313 25.7809 29.3885 25.7218C29.2458 25.6626 29.1238 25.5625 29.0379 25.434C28.9521 25.3056 28.9063 25.1545 28.9063 25C28.9065 24.7929 28.9889 24.5943 29.1353 24.4478C29.2818 24.3014 29.4804 24.219 29.6875 24.2188Z" fill="#F0F4F7"/>
<path d="M12.6787 32.3301L18.9318 24.5163L20.1522 25.4929L13.8991 33.3067L12.6787 32.3301Z" fill="#F0F4F7"/>
<path d="M18.1262 30.7815L22.8137 24.5315L24.0637 25.469L19.3762 31.719L18.1262 30.7815Z" fill="#F0F4F7"/>
<path d="M2.24916 24.2902L6.96791 24.6797L7.09643 23.1224L4.22299 22.8853L8.59096 19.0834C8.67556 19.0097 8.74331 18.9187 8.78961 18.8166C8.8359 18.7144 8.85965 18.6035 8.85924 18.4913C8.85884 18.3791 8.83428 18.2684 8.78725 18.1665C8.74021 18.0647 8.6718 17.9742 8.58666 17.9012L4.24897 14.1808L10.0624 13.5897C10.1724 13.5786 10.2788 13.5443 10.3745 13.489C10.4702 13.4338 10.5531 13.3588 10.6177 13.2691C10.6823 13.1794 10.7272 13.0771 10.7493 12.9688C10.7714 12.8605 10.7703 12.7487 10.746 12.6409L9.49047 7.06473L14.5213 9.94686C14.6162 10.0013 14.7215 10.0351 14.8303 10.0462C14.9392 10.0574 15.0491 10.0455 15.1531 10.0114C15.257 9.97739 15.3527 9.92187 15.4338 9.84851C15.5149 9.77514 15.5798 9.68554 15.6241 9.58553L18.0166 4.1787L20.3961 8.94364C20.4421 9.0357 20.5058 9.11777 20.5836 9.18514C20.6614 9.25251 20.7517 9.30385 20.8493 9.33622C20.947 9.36859 21.0501 9.38134 21.1527 9.37375C21.2554 9.36616 21.3555 9.33837 21.4473 9.29198L26.4416 6.76893L26.2401 7.63661L27.7622 7.99012L28.3408 5.49413C28.3744 5.34941 28.366 5.19811 28.3167 5.05797C28.2673 4.91783 28.1791 4.79467 28.0622 4.70292C27.9453 4.61118 27.8047 4.55466 27.6569 4.53999C27.5091 4.52532 27.3601 4.55311 27.2275 4.6201L21.4429 7.54247L18.6728 1.99471C18.6066 1.86209 18.504 1.75104 18.377 1.67454C18.25 1.59805 18.1039 1.55926 17.9557 1.56271C17.8075 1.56616 17.6633 1.61171 17.54 1.69403C17.4167 1.77636 17.3194 1.89206 17.2594 2.02762L14.5455 8.15985L8.72621 4.82606C8.59465 4.75066 8.44399 4.71518 8.29261 4.72395C8.14123 4.73271 7.99567 4.78534 7.87368 4.87541C7.7517 4.96549 7.65856 5.08911 7.60564 5.23121C7.55271 5.37331 7.54229 5.52775 7.57563 5.67567L9.02768 12.1246L2.27836 12.8108C2.12628 12.8263 1.98208 12.886 1.86361 12.9826C1.74515 13.0792 1.65762 13.2084 1.61189 13.3543C1.56615 13.5002 1.5642 13.6562 1.60629 13.8032C1.64838 13.9501 1.73265 14.0815 1.84867 14.181L6.88305 18.4987L1.80043 22.9225C1.68458 23.0234 1.60105 23.1562 1.56026 23.3043C1.51948 23.4524 1.52326 23.6093 1.57114 23.7552C1.61902 23.9012 1.70886 24.0298 1.82944 24.125C1.95001 24.2201 2.09597 24.2777 2.24906 24.2903L2.24916 24.2902Z" fill="#F0F4F7"/>
</g>
</svg>
