<svg width="50" height="50" viewBox="0 0 50 50" fill="none" xmlns="http://www.w3.org/2000/svg">
<g opacity="0.8">
<path d="M39.3086 22.1535L40.4539 18.6694C40.7067 17.9002 41.4249 17.3804 42.2347 17.3804H44.2482C44.9624 17.3804 45.6146 17.7862 45.93 18.427L47.0703 20.7434L46.5369 22.1535L41.2903 23.5932L39.3086 22.1535Z" fill="#00A2ED"/>
<path d="M47.0691 20.7434L46.5359 22.1536L44.6531 21.6963L42.9988 18.427C42.7527 17.926 42.3005 17.5696 41.7742 17.4377C41.9216 17.4006 42.0759 17.3811 42.2332 17.3811H44.2468C44.9617 17.3811 45.613 17.7864 45.9285 18.427L47.0691 20.7434Z" fill="#00A2ED"/>
<path d="M9.12349 45.3595C13.7577 45.3595 17.5146 41.6027 17.5146 36.9685C17.5146 32.3342 13.7577 28.5774 9.12349 28.5774C4.48923 28.5774 0.732422 32.3342 0.732422 36.9685C0.732422 41.6027 4.48923 45.3595 9.12349 45.3595Z" fill="#678D98"/>
<path d="M17.5146 36.9687C17.5146 41.6025 13.7578 45.3593 9.12402 45.3593C8.65917 45.3593 8.20215 45.3212 7.75781 45.248C11.7431 44.5966 14.7832 41.1376 14.7832 36.9687C14.7832 32.7988 11.7431 29.3398 7.75781 28.6885C8.20215 28.6152 8.65917 28.5771 9.12402 28.5771C13.7578 28.5771 17.5146 32.334 17.5146 36.9687Z" fill="#537983"/>
<path d="M40.8774 45.3593C45.5116 45.3593 49.2685 41.6025 49.2685 36.9682C49.2685 32.334 45.5116 28.5771 40.8774 28.5771C36.2431 28.5771 32.4863 32.334 32.4863 36.9682C32.4863 41.6025 36.2431 45.3593 40.8774 45.3593Z" fill="#678D98"/>
<path d="M49.2675 36.9687C49.2675 41.6025 45.5107 45.3593 40.8769 45.3593C40.4121 45.3593 39.9551 45.3212 39.5107 45.248C43.4961 44.5966 46.5361 41.1376 46.5361 36.9687C46.5361 32.7988 43.4961 29.3398 39.5107 28.6885C39.9551 28.6152 40.4121 28.5771 40.8769 28.5771C45.5107 28.5771 49.2675 32.334 49.2675 36.9687Z" fill="#537983"/>
<path d="M40.877 42.6279C44.0024 42.6279 46.5361 40.0942 46.5361 36.9688C46.5361 33.8433 44.0024 31.3096 40.877 31.3096C37.7515 31.3096 35.2178 33.8433 35.2178 36.9688C35.2178 40.0942 37.7515 42.6279 40.877 42.6279Z" fill="#F5F8F9"/>
<path d="M46.5361 36.9688C46.5361 40.0938 44.002 42.6279 40.877 42.6279C40.4062 42.6279 39.9482 42.5703 39.5107 42.4609C41.9766 41.8506 43.8037 39.623 43.8037 36.9688C43.8037 34.3145 41.9766 32.0869 39.5107 31.4766C39.9482 31.3672 40.4062 31.3096 40.877 31.3096C44.002 31.3096 46.5361 33.8428 46.5361 36.9688Z" fill="#D9E7EC"/>
<path d="M9.12293 42.6279C12.2484 42.6279 14.7821 40.0942 14.7821 36.9688C14.7821 33.8433 12.2484 31.3096 9.12293 31.3096C5.99745 31.3096 3.46375 33.8433 3.46375 36.9688C3.46375 40.0942 5.99745 42.6279 9.12293 42.6279Z" fill="#F5F8F9"/>
<path d="M14.7832 36.9688C14.7832 40.0938 12.249 42.6279 9.12402 42.6279C8.65332 42.6279 8.19531 42.5703 7.75781 42.4619C10.2236 41.8506 12.0508 39.623 12.0508 36.9688C12.0508 34.3135 10.2236 32.0859 7.75781 31.4766C8.19531 31.3672 8.65332 31.3096 9.12402 31.3096C12.249 31.3096 14.7832 33.8428 14.7832 36.9688Z" fill="#D9E7EC"/>
<path d="M48.7538 22.1495C48.7538 22.714 48.4218 23.2247 47.9072 23.4542L44.3789 25.0275C42.9443 25.6681 41.4345 26.1261 39.8847 26.3907L38.2568 26.669C37.2959 26.8341 36.3896 27.1397 35.5557 27.5626C32.544 29.0929 30.4961 32.1641 30.3672 35.6846L30.2256 39.5694C30.1856 40.6768 29.2754 41.5547 28.167 41.5547H18.8077C18.296 41.5547 17.8331 41.3477 17.4982 41.0117C17.1622 40.6768 16.9552 40.2129 16.9552 39.7022C16.9552 34.6299 13.4806 30.2179 8.54899 29.0294L2.46015 27.5626C1.58809 27.3526 1.15157 26.3732 1.57832 25.5831L6.24529 16.964C6.99333 15.5812 8.76188 15.133 10.0783 15.9904L12.4874 17.5607C12.9503 17.8625 13.0939 18.4738 12.8126 18.9494L11.6759 20.8771L24.2247 17.4972L30.5938 23.7365L47.0693 20.7433C47.1562 20.7277 47.2421 20.7199 47.3271 20.7199C48.0986 20.7199 48.7538 21.3468 48.7538 22.1495Z" fill="#F5F8F9"/>
<path d="M48.753 22.1494C48.753 22.7139 48.421 23.2246 47.9064 23.4541L44.3781 25.0273C42.9435 25.6679 41.4337 26.1259 39.884 26.3906L38.256 26.6689C37.2951 26.8339 36.3889 27.1396 35.5549 27.5625C32.5432 29.0927 30.4953 32.164 30.3664 35.6845L30.2248 39.5692C30.1848 40.6766 29.2746 41.5546 28.1662 41.5546H25.2366C26.345 41.5546 27.2551 40.6766 27.2952 39.5692L27.4368 35.6845C27.5657 32.164 29.6135 29.0927 32.6252 27.5625C33.4592 27.1396 34.3654 26.8339 35.3264 26.6689L36.9543 26.3906C38.5041 26.1259 40.0138 25.6679 41.4484 25.0273L44.9767 23.4541C45.4913 23.2246 45.8234 22.7139 45.8234 22.1494C45.8234 21.709 45.6261 21.3203 45.3195 21.0605L47.0685 20.7432C47.1554 20.7275 47.2413 20.7197 47.3263 20.7197C48.0978 20.7197 48.753 21.3467 48.753 22.1494Z" fill="#D9E7EC"/>
<path d="M35.5555 27.5625C32.5438 29.0928 30.4959 32.164 30.367 35.6845L30.2254 39.5693C30.1854 40.6767 29.2752 41.5546 28.1668 41.5546H18.8075C18.2958 41.5546 17.8329 41.3476 17.498 41.0116C17.162 40.6767 16.955 40.2128 16.955 39.7021C16.955 34.6298 13.4804 30.2178 8.54879 29.0293L2.45996 27.5625H35.5555Z" fill="#00A2ED"/>
<path d="M35.5549 27.5627C32.5432 29.093 30.4954 32.1643 30.3665 35.6848L30.2249 39.5696C30.1848 40.677 29.2747 41.5549 28.1663 41.5549H25.2366C26.345 41.5549 27.2551 40.677 27.2952 39.5696L27.4368 35.6848C27.5657 32.1643 29.6135 29.093 32.6252 27.5627H35.5549Z" fill="#00A2ED"/>
<path d="M26.5165 38.8275H20.7479C20.0835 38.8275 19.5449 38.2889 19.5449 37.6245V35.7619C19.5449 35.0974 20.0835 34.5588 20.7479 34.5588H26.5165C27.181 34.5588 27.7195 35.0974 27.7195 35.7619V37.6245C27.7195 38.2888 27.181 38.8275 26.5165 38.8275Z" fill="#16D6FF"/>
<path d="M36.7335 18.1062L30.5934 23.7373L22.7295 16.0336L23.6826 9.8295C26.1291 8.90176 28.894 9.55821 30.6625 11.4865L36.7335 18.1062Z" fill="#00A2ED"/>
<path d="M36.7334 18.1055L34.4287 18.8184L33.8037 18.1055L27.7334 11.4863C26.8467 10.5186 25.708 9.87109 24.4854 9.58301C24.9697 9.46875 25.4609 9.41309 25.9482 9.41309C27.707 9.41309 29.4287 10.1396 30.6631 11.4863L36.7334 18.1055Z" fill="#00A2ED"/>
<path d="M37.9315 20.1503C37.819 19.5463 37.5392 18.986 37.1239 18.5332L36.7328 18.1069L27.9269 20.8312L22.3165 24.8382C20.6298 25.9598 20.1694 28.2351 21.2871 29.9243L25.2366 35.7742C25.589 36.2321 25.6838 36.8379 25.4883 37.3815L24.3787 40.4657C24.2424 40.8447 24.3536 41.2684 24.6586 41.5316C25.0633 41.8807 25.6737 41.838 26.0259 41.436L29.7703 37.1606C30.4556 36.378 30.5674 35.2462 30.0482 34.3447L26.9072 28.8249L36.4657 23.5208C37.5965 22.8018 38.1768 21.4677 37.9315 20.1503Z" fill="#678D98"/>
<path d="M36.4642 23.52L26.9066 28.8246L30.0474 34.3444C30.566 35.2458 30.4547 36.3776 29.7691 37.1599L26.025 41.4352C25.8326 41.6549 25.5631 41.7672 25.2926 41.7672C25.067 41.7672 24.8414 41.6901 24.6578 41.5309C24.3531 41.2682 24.2418 40.8444 24.3775 40.4655L24.6793 39.6266L26.8394 37.1599C27.525 36.3776 27.6363 35.2458 27.1178 34.3444L24.4415 29.6495C24.1855 29.1948 24.3484 28.6184 24.8048 28.3652L33.5345 23.52C34.6664 22.8012 35.2464 21.4673 35.0003 20.1499C34.9105 19.6675 34.7142 19.2134 34.4271 18.8188L36.7318 18.106L37.1234 18.5327C37.5384 18.9858 37.8177 19.5454 37.93 20.1499C38.1761 21.4673 37.596 22.8012 36.4642 23.52Z" fill="#537983"/>
<path d="M25.739 10.555C24.6202 9.33496 22.6202 9.64589 21.9245 11.1479L18.9536 17.5762C18.6858 18.4457 17.8822 19.0389 16.9725 19.0389H11.7172C10.8177 19.0389 9.97986 19.4957 9.49265 20.2518C8.74988 21.4043 9.26287 22.9483 10.5476 23.4273C11.4476 23.7628 12.4589 23.5825 13.1876 22.9567C13.5924 22.6089 14.1214 22.4411 14.6527 22.492L18.1273 22.8247C20.1903 23.0223 22.1515 21.8888 23.0101 20.0026L26.1397 13.0857C26.5265 12.2383 26.3687 11.2416 25.739 10.555Z" fill="#678D98"/>
<path d="M26.1389 13.0866L23.009 20.0036C22.1506 21.8893 20.1897 23.0231 18.1262 22.8248L16.8381 22.7018C18.2454 22.3502 19.4553 21.3766 20.0793 20.0036L23.2092 13.0866C23.5959 12.2389 23.4377 11.2418 22.8079 10.5553C22.7297 10.4704 22.6477 10.3922 22.5618 10.3229C23.47 9.58363 24.8694 9.60805 25.7375 10.5553C26.3674 11.2418 26.5256 12.2389 26.1389 13.0866Z" fill="#537983"/>
<path d="M21.1341 11.4768L18.9427 13.8909C17.8538 15.0891 16.18 15.2815 14.8958 14.6194C14.2425 14.2835 13.6897 13.7258 13.3665 12.968C13.2288 12.6448 13.1175 12.3176 13.0325 11.9866C12.511 9.96021 12.9895 7.8147 14.6136 5.87232C16.0081 4.33521 18.385 4.22095 19.9222 5.61549L20.8929 6.49732C22.3343 7.80601 22.4427 10.0354 21.1341 11.4768Z" fill="#00A2ED"/>
<path d="M21.1346 11.4769L18.9432 13.8909C17.8788 15.0618 16.2557 15.2728 14.9843 14.6634C15.3593 14.4818 15.7089 14.2259 16.0135 13.8909L18.205 11.4769C19.5135 10.0355 19.4052 7.80598 17.9637 6.49739L16.993 5.61555C16.6708 5.32258 16.3114 5.097 15.9315 4.93684C17.2382 4.3841 18.8026 4.59992 19.9227 5.61555L20.8934 6.49739C22.3348 7.80598 22.4432 10.0355 21.1346 11.4769Z" fill="#00A2ED"/>
<path d="M17.2354 11.8882L14.8955 14.6196C14.2422 14.2837 13.6895 13.7261 13.3662 12.9683C13.2285 12.645 13.1172 12.3179 13.0322 11.9868L15.8691 8.67627C16.0957 8.41065 16.5176 8.44873 16.6934 8.75049L17.4072 9.97119C17.7646 10.5815 17.6953 11.3511 17.2354 11.8882Z" fill="#16D6FF"/>
<path d="M43.1885 15.0229C43.9975 15.0229 44.6533 14.3671 44.6533 13.5581C44.6533 12.7491 43.9975 12.0933 43.1885 12.0933C42.3795 12.0933 41.7236 12.7491 41.7236 13.5581C41.7236 14.3671 42.3795 15.0229 43.1885 15.0229Z" fill="#00A2ED"/>
<path d="M40.8774 45.3603C45.5116 45.3603 49.2685 41.6034 49.2685 36.9692C49.2685 32.3349 45.5116 28.5781 40.8774 28.5781C36.2431 28.5781 32.4863 32.3349 32.4863 36.9692C32.4863 41.6034 36.2431 45.3603 40.8774 45.3603Z" stroke="#0C304A" stroke-miterlimit="10" stroke-linecap="round" stroke-linejoin="round"/>
<path d="M39.5829 31.458C39.9982 31.3609 40.4311 31.3096 40.876 31.3096C44.0015 31.3096 46.5352 33.8433 46.5352 36.9688C46.5352 40.0942 44.0015 42.6279 40.876 42.6279C37.7505 42.6279 35.2168 40.0942 35.2168 36.9688C35.2168 35.5421 35.7447 34.2388 36.6158 33.2434" stroke="#0C304A" stroke-miterlimit="10" stroke-linecap="round" stroke-linejoin="round"/>
<path d="M9.12293 42.6279C12.2484 42.6279 14.7821 40.0942 14.7821 36.9688C14.7821 33.8433 12.2484 31.3096 9.12293 31.3096C5.99745 31.3096 3.46375 33.8433 3.46375 36.9688C3.46375 40.0942 5.99745 42.6279 9.12293 42.6279Z" stroke="#0C304A" stroke-miterlimit="10" stroke-linecap="round" stroke-linejoin="round"/>
<path d="M16.9714 39.946C15.7702 43.1108 12.7096 45.3604 9.12353 45.3604C4.48926 45.3604 0.732422 41.6035 0.732422 36.9692C0.732422 32.9241 3.59473 29.5476 7.40439 28.7544" stroke="#0C304A" stroke-miterlimit="10" stroke-linecap="round" stroke-linejoin="round"/>
<path d="M4.08789 20.9492L6.2457 16.964C6.99375 15.5812 8.7623 15.133 10.0787 15.9904L12.4879 17.5607C12.9508 17.8625 13.0943 18.4738 12.8131 18.9494L12.7604 19.0386" stroke="#0C304A" stroke-miterlimit="10" stroke-linecap="round" stroke-linejoin="round"/>
<path d="M24.5965 41.5548H18.8077C18.296 41.5548 17.8331 41.3477 17.4982 41.0118C17.1622 40.6769 16.9552 40.213 16.9552 39.7023C16.9552 34.63 13.4806 30.2179 8.54899 29.0295L2.46015 27.5627C1.58809 27.3527 1.15157 26.3732 1.57832 25.5832L2.46015 23.9546" stroke="#0C304A" stroke-miterlimit="10" stroke-linecap="round" stroke-linejoin="round"/>
<path d="M25.877 41.5546H28.1662C29.2746 41.5546 30.1847 40.6766 30.2248 39.5692L30.3125 37.1621L30.4128 35.0299C30.755 31.7861 32.7313 28.997 35.5548 27.5625C36.3888 27.1396 37.295 26.8339 38.256 26.6689L39.8839 26.3906C41.4337 26.1259 42.9435 25.6679 44.378 25.0273L47.9063 23.4541C48.421 23.2246 48.753 22.7139 48.753 22.1494C48.753 21.3467 48.0977 20.7197 47.3262 20.7197C47.2413 20.7197 47.1553 20.7275 47.0684 20.7432L37.4919 22.483" stroke="#0C304A" stroke-miterlimit="10" stroke-linecap="round" stroke-linejoin="round"/>
<path d="M24.2246 17.4971L27.7484 20.9491" stroke="#0C304A" stroke-miterlimit="10" stroke-linecap="round" stroke-linejoin="round"/>
<path d="M23.6816 9.82952C26.1282 8.90178 28.8931 9.55813 30.6615 11.4865L36.7325 18.1063" stroke="#0C304A" stroke-miterlimit="10" stroke-linecap="round" stroke-linejoin="round"/>
<path d="M25.739 10.555C24.6202 9.33496 22.6202 9.64589 21.9245 11.1479L18.9536 17.5762C18.6858 18.4457 17.8823 19.0389 16.9725 19.0389H11.7172C10.8177 19.0389 9.97986 19.4957 9.49265 20.2518C8.74988 21.4043 9.26287 22.9483 10.5476 23.4273C11.4476 23.7628 12.4589 23.5825 13.1876 22.9567C13.5924 22.6089 14.1214 22.4411 14.6527 22.492L18.1273 22.8247C20.1903 23.0223 22.1515 21.8888 23.0102 20.0026L26.1397 13.0857C26.5265 12.2383 26.3687 11.2416 25.739 10.555Z" stroke="#0C304A" stroke-miterlimit="10" stroke-linecap="round" stroke-linejoin="round"/>
<path d="M21.1341 11.4768L18.9427 13.8909C17.8538 15.0891 16.18 15.2815 14.8958 14.6194C14.2425 14.2835 13.6897 13.7258 13.3665 12.968C13.2288 12.6448 13.1175 12.3176 13.0325 11.9866C12.511 9.96021 12.9895 7.8147 14.6136 5.87232C16.0081 4.33521 18.385 4.22095 19.9222 5.61549L20.8929 6.49732C22.3343 7.80601 22.4427 10.0354 21.1341 11.4768Z" stroke="#0C304A" stroke-miterlimit="10" stroke-linecap="round" stroke-linejoin="round"/>
<path d="M17.2372 11.8879L14.8973 14.6194C14.244 14.2835 13.6913 13.7258 13.368 12.968C13.2303 12.6448 13.119 12.3176 13.0341 11.9866L15.871 8.67603C16.0975 8.4104 16.5194 8.44849 16.6952 8.75025L17.4091 9.97095C17.7665 10.5813 17.6971 11.3508 17.2372 11.8879Z" stroke="#0C304A" stroke-miterlimit="10" stroke-linecap="round" stroke-linejoin="round"/>
<path d="M39.3066 22.1545L40.452 18.6704C40.7048 17.9012 41.423 17.3813 42.2327 17.3813H44.2463C44.9604 17.3813 45.6126 17.7872 45.928 18.4279L47.0684 20.7443" stroke="#0C304A" stroke-miterlimit="10" stroke-linecap="round" stroke-linejoin="round"/>
<path d="M29.1807 27.5625H35.5559" stroke="#0C304A" stroke-miterlimit="10" stroke-linecap="round" stroke-linejoin="round"/>
<path d="M2.45996 27.5625H20.6774" stroke="#0C304A" stroke-miterlimit="10" stroke-linecap="round" stroke-linejoin="round"/>
<path d="M24.9685 38.8275H20.7479C20.0835 38.8275 19.5449 38.2889 19.5449 37.6245V35.7619C19.5449 35.0974 20.0835 34.5588 20.7479 34.5588H24.3552" stroke="#0C304A" stroke-miterlimit="10" stroke-linecap="round" stroke-linejoin="round"/>
<path d="M43.1885 17.3811V15.0229" stroke="#0C304A" stroke-miterlimit="10" stroke-linecap="round" stroke-linejoin="round"/>
<path d="M43.1885 15.0229C43.9975 15.0229 44.6533 14.3671 44.6533 13.5581C44.6533 12.7491 43.9975 12.0933 43.1885 12.0933C42.3795 12.0933 41.7236 12.7491 41.7236 13.5581C41.7236 14.3671 42.3795 15.0229 43.1885 15.0229Z" stroke="#0C304A" stroke-miterlimit="10" stroke-linecap="round" stroke-linejoin="round"/>
<path d="M37.9315 20.1493C37.819 19.5453 37.5392 18.9851 37.1239 18.5322L36.7328 18.106L27.9269 20.8303L22.3165 24.8373C20.6298 25.9588 20.1694 28.2341 21.2871 29.9234L25.2366 35.7732C25.589 36.2311 25.6838 36.8369 25.4883 37.3806L24.3787 40.4647C24.2424 40.8437 24.3536 41.2674 24.6586 41.5306C25.0633 41.8797 25.6737 41.8371 26.0259 41.435L29.7703 37.1597C30.4556 36.377 30.5674 35.2452 30.0482 34.3438L26.9072 28.824L36.4657 23.5198C37.5965 22.8009 38.1768 21.4667 37.9315 20.1493Z" stroke="#0C304A" stroke-miterlimit="10" stroke-linecap="round" stroke-linejoin="round"/>
</g>
</svg>
